<?xml version="1.0" encoding="iso-8859-1"?>
<!DOCTYPE svg PUBLIC "-//W3C//DTD SVG 1.1//EN" "http://www.w3.org/Graphics/SVG/1.1/DTD/svg11.dtd">
<svg xmlns="http://www.w3.org/2000/svg" xmlns:xlink="http://www.w3.org/1999/xlink" version="1.1" viewBox="0 0 297 297" enable-background="new 0 0 297 297" width="512px" height="512px">
  <g>
    <polygon points="239.032,27.029 239.032,103.279 256.921,27.029  " fill="#FFFFFF"/>
    <polygon points="227.166,27.029 208.852,27.029 227.166,105.092  " fill="#FFFFFF"/>
    <path d="m256.431,123.285h-48.009l-8.145,124.332c-0.576,8.795 2.366,17.119 8.283,23.436 5.916,6.316 14.028,9.795 22.843,9.795h1.978c8.814,0 16.928-3.479 22.844-9.795 5.917-6.316 8.858-14.641 8.282-23.436l-8.076-124.332z" fill="#FFFFFF"/>
    <path d="m256.483,123.285h-0.053c0.016-0.031 0.038,0.031 0.053,0z" fill="#FFFFFF"/>
    <path d="m216.461,111.418l-19.798-84.389h-17.672c-3.393,0-6.549,1.74-8.36,4.609-1.813,2.869-2.026,6.469-0.567,9.533l33.452,70.246h12.945z" fill="#FFFFFF"/>
    <path d="m295.473,31.639c-1.813-2.869-4.968-4.609-8.361-4.609h-18.002l-19.797,84.389h13.275l33.451-70.246c1.459-3.066 1.246-6.665-0.566-9.534z" fill="#FFFFFF"/>
    <path d="m84.387,152.621c-20.176,0-36.59,16.414-36.59,36.59 0,20.176 16.414,36.59 36.59,36.59s36.59-16.414 36.59-36.59c0-20.176-16.414-36.59-36.59-36.59z" fill="#FFFFFF"/>
    <path d="m84.387,16.152c-46.532,0-84.387,37.856-84.387,84.387 0,16.783 4.866,32.826 14.093,46.672 14.326-23.889 40.471-39.914 70.294-39.914 29.823,0 55.968,16.025 70.294,39.914 9.227-13.846 14.093-29.889 14.093-46.672-0.001-46.531-37.856-84.387-84.387-84.387z" fill="#FFFFFF"/>
    <path d="m84.387,122.129c-36.988,0-67.081,30.094-67.081,67.082 0,36.988 30.093,67.08 67.081,67.08s67.081-30.092 67.081-67.08c-2.84217e-14-36.988-30.093-67.082-67.081-67.082zm0,118.506c-28.355,0-51.424-23.068-51.424-51.424 0-28.355 23.068-51.424 51.424-51.424 28.355,0 51.424,23.068 51.424,51.424 0,28.355-23.069,51.424-51.424,51.424z" fill="#FFFFFF"/>
  </g>
</svg>
