<?xml version="1.0" encoding="iso-8859-1"?>
<!-- Generator: Adobe Illustrator 18.0.0, SVG Export Plug-In . SVG Version: 6.00 Build 0)  -->
<!DOCTYPE svg PUBLIC "-//W3C//DTD SVG 1.1//EN" "http://www.w3.org/Graphics/SVG/1.1/DTD/svg11.dtd">
<svg xmlns="http://www.w3.org/2000/svg" xmlns:xlink="http://www.w3.org/1999/xlink" version="1.1" id="Capa_1" x="0px" y="0px" viewBox="0 0 481.963 481.963" style="enable-background:new 0 0 481.963 481.963;" xml:space="preserve" width="512px" height="512px">
<path d="M354.2,218.884v-32.493c4.708-11.303,15.498-41.946,13.796-82.115c-1.097-25.891,14.298-78.134,14.453-78.659l3.027-10.205  L318.445,0l-2.316,9.622c-0.11,0.458-11.563,45.833-58.932,54.219l-6.555,1.16l-1.459,6.495  c-3.341,14.874-6.063,24.871-8.165,31.562c-2.102-6.69-4.824-16.688-8.165-31.562l-1.459-6.495l-6.555-1.16  c-47.008-8.322-58.477-52.383-58.934-54.22L163.589,0L96.556,15.413l3.029,10.206c0.156,0.524,15.554,52.734,14.453,78.658  c-1.702,40.169,9.088,70.813,13.796,82.115v32.313L30.481,438.252l5.671,4.842c1.859,1.587,47.343,38.87,204.821,38.87  c157.486,0,202.977-37.282,204.836-38.869l5.673-4.842L354.2,218.884z M147.835,210.822v-14.192H334.2v14.192H147.835z   M149.623,23.733c2.262,5.663,5.9,13.285,11.432,21.208c13.248,18.977,31.724,31.74,53.721,37.199  c2.727,11.647,5.316,21.258,7.712,28.632c3.837,11.807,8.43,23.335,18.531,23.335c10.102,0,14.693-11.527,18.531-23.335  c2.396-7.373,4.985-16.985,7.712-28.632c21.997-5.459,40.473-18.222,53.72-37.199c5.531-7.923,9.17-15.545,11.432-21.207  l27.997,6.438c-4.683,17.461-13.323,53.068-12.397,74.952c1.433,33.823-7.149,60.449-11.462,71.506H145.463  c-4.315-10.995-12.883-37.476-11.441-71.506c0.929-21.884-7.713-57.492-12.396-74.953L149.623,23.733z M393.253,444.853  c-48.375,14.141-109.509,17.11-152.275,17.11c-42.766-0.001-103.898-2.969-152.271-17.11c-16.813-4.915-27.462-9.861-33.443-13.15  l89.077-200.881h37.102l-19.634,87.174l19.512,4.395l20.623-91.568h77.217l20.623,91.568l19.512-4.395l-19.634-87.174h37.955  l89.084,200.881C420.717,434.992,410.068,439.938,393.253,444.853z" fill="#FFFFFF"/>
<g>
</g>
<g>
</g>
<g>
</g>
<g>
</g>
<g>
</g>
<g>
</g>
<g>
</g>
<g>
</g>
<g>
</g>
<g>
</g>
<g>
</g>
<g>
</g>
<g>
</g>
<g>
</g>
<g>
</g>
</svg>
