<?xml version="1.0" encoding="iso-8859-1"?>
<!-- Generator: Adobe Illustrator 18.0.0, SVG Export Plug-In . SVG Version: 6.00 Build 0)  -->
<!DOCTYPE svg PUBLIC "-//W3C//DTD SVG 1.1//EN" "http://www.w3.org/Graphics/SVG/1.1/DTD/svg11.dtd">
<svg xmlns="http://www.w3.org/2000/svg" xmlns:xlink="http://www.w3.org/1999/xlink" version="1.1" id="Capa_1" x="0px" y="0px" viewBox="0 0 461.796 461.796" style="enable-background:new 0 0 461.796 461.796;" xml:space="preserve" width="512px" height="512px">
<g>
	<path d="M113.229,302.382c28.947,0.162,52.544-23.173,52.705-52.119c0.112-20.079-11.086-37.575-27.615-46.47   c1.983-0.988,4.251-1.382,6.52-1.012c3.47,0.565,6.415-0.129,7.907-2.195l0,0l1.713,1.238c2.226,1.609,5.147,1.544,7.279,0.057   l-8.982-20.093c-9.042-20.227,0.058-44.039,20.284-53.08c5.202-2.326,10.714-3.506,16.383-3.506h0.002   c8.372,0,16.331,2.632,22.941,7.23l1.178-1.63c2.035-2.815,1.402-6.747-1.414-8.782l-28.342-20.481   c-2.815-2.035-6.747-1.402-8.782,1.414l-50.304,69.61c-2.035,2.815-1.402,6.747,1.414,8.782l1.713,1.238   c-1.493,2.066-1.228,5.079,0.399,8.197c1.476,2.83,1.58,6.124,0.414,9.008c-4.699-1.414-9.672-2.199-14.828-2.227   c-28.947-0.162-52.544,23.173-52.705,52.119C60.948,278.623,84.283,302.22,113.229,302.382z" fill="#FFFFFF"/>
	<path d="M189.425,138.923c-3.608,0-7.276,0.743-10.783,2.311c-13.34,5.964-19.321,21.612-13.358,34.953l29.395,65.76   c-4.438,6.802-6.876,14.728-6.923,23.061c-0.132,23.589,18.883,42.818,42.472,42.95l120.188,0.672c0.081,0,0.162,0.001,0.243,0.001   c23.477,0,42.575-18.966,42.706-42.473c0.057-10.226-2.121-15.738-4.711-19.735c-1.512-2.94-3.354-5.681-5.48-8.176l-35.195-52.388   l29.983-40.025c8.761-11.695,6.383-28.278-5.313-37.039c-11.693-8.76-28.278-6.384-37.038,5.313l-41.243,55.055   c-6.744,9.001-7.059,21.282-0.787,30.618l15.583,23.195c-13.115-0.073-37.348-0.209-65.166-0.364l-30.405-68.019   C209.199,144.759,199.542,138.923,189.425,138.923z" fill="#FFFFFF"/>
	<path d="M447.093,332.045H14.703C6.583,332.045,0,338.628,0,346.748c0,8.12,6.583,14.703,14.703,14.703h432.39   c8.12,0,14.703-6.583,14.703-14.703C461.796,338.628,455.213,332.045,447.093,332.045z" fill="#FFFFFF"/>
</g>
<g>
</g>
<g>
</g>
<g>
</g>
<g>
</g>
<g>
</g>
<g>
</g>
<g>
</g>
<g>
</g>
<g>
</g>
<g>
</g>
<g>
</g>
<g>
</g>
<g>
</g>
<g>
</g>
<g>
</g>
</svg>
